<?xml version="1.0" encoding="UTF-8" standalone="no"?>
<svg
   xmlns:dc="http://purl.org/dc/elements/1.1/"
   xmlns:cc="http://creativecommons.org/ns#"
   xmlns:rdf="http://www.w3.org/1999/02/22-rdf-syntax-ns#"
   xmlns:svg="http://www.w3.org/2000/svg"
   xmlns="http://www.w3.org/2000/svg"
   xmlns:sodipodi="http://sodipodi.sourceforge.net/DTD/sodipodi-0.dtd"
   xmlns:inkscape="http://www.inkscape.org/namespaces/inkscape"
   version="1.1"
   width="328"
   height="134"
   id="svg4"
   sodipodi:docname="signature.svg"
   inkscape:export-filename="/home/dazmiin/Música/neumorphism-ui-v1.0.0/html&amp;css/assets/img/signature.svg.png"
   inkscape:export-xdpi="96"
   inkscape:export-ydpi="96"
   inkscape:version="0.92.5 (2060ec1f9f, 2020-04-08)">
  <metadata
     id="metadata10">
    <rdf:RDF>
      <cc:Work
         rdf:about="">
        <dc:format>image/svg+xml</dc:format>
        <dc:type
           rdf:resource="http://purl.org/dc/dcmitype/StillImage" />
      </cc:Work>
    </rdf:RDF>
  </metadata>
  <defs
     id="defs8" />
  <sodipodi:namedview
     pagecolor="#ffffff"
     bordercolor="#666666"
     borderopacity="1"
     objecttolerance="10"
     gridtolerance="10"
     guidetolerance="10"
     inkscape:pageopacity="0"
     inkscape:pageshadow="2"
     inkscape:window-width="1366"
     inkscape:window-height="697"
     id="namedview6"
     showgrid="false"
     inkscape:zoom="0.63"
     inkscape:cx="-5.6634881"
     inkscape:cy="154.37445"
     inkscape:window-x="0"
     inkscape:window-y="0"
     inkscape:window-maximized="1"
     inkscape:current-layer="g385" />
  <g
     id="g385"
     transform="matrix(0.93281708,0,0,1.1618506,-433.61996,-958.83921)">
    <path
       id="path25"
       d="m 680.92123,877.67297 c 6.07487,-1.24611 12.16972,-2.4034 18.21876,-3.76463 5.55281,-1.24947 10.92184,-3.47394 16.8325,-2.33021 9.73979,1.88471 14.8175,6.6254 16.2851,15.9186 0.46257,2.92889 -1.19249,5.79668 -1.04804,8.87662 0.0434,0.9265 -1.7663,2.59119 -3.55495,2.30592 -10.25432,-1.63572 -19.35226,1.67684 -28.02946,6.58553 -8.81547,4.98689 -18.10382,9.28641 -25.25328,16.79468 -1.15518,1.21319 -2.18043,2.34619 -2.37694,4.2075 -0.59222,5.60981 2.45029,8.91587 7.9629,7.3785 12.09038,-3.37171 24.72986,-6.09154 34.46965,-14.54341 6.08651,-5.28164 11.27311,-11.81954 13.6909,-19.93337"
       inkscape:connector-curvature="0"
       style="opacity:1;fill:none;stroke:#000000;stroke-width:4.67298412;stroke-linecap:round;stroke-linejoin:round" />
    <path
       id="path53"
       d="m 637.92977,844.02748 c -15.25275,-0.26012 -27.5539,8.08976 -40.62554,14.08307 -6.6048,3.02832 -12.96296,6.63819 -18.70111,11.17666 -1.58592,1.25433 -3.31741,1.38462 -5.16053,1.37629"
       inkscape:connector-curvature="0"
       style="opacity:1;fill:none;stroke:#000000;stroke-width:4.67298412;stroke-linecap:round;stroke-linejoin:round" />
    <path
       id="path71"
       d="m 661.29469,882.34596 c -4.91041,-0.17907 -9.74395,-0.34221 -13.5816,3.71004 -3.27149,3.45436 -4.31583,10.01764 -2.36702,13.61274 2.5528,4.70926 10.58923,5.15112 14.53959,3.22368 2.06526,-1.00772 4.05709,-2.16603 6.08201,-3.25637"
       inkscape:connector-curvature="0"
       style="opacity:1;fill:none;stroke:#000000;stroke-width:5.60758114;stroke-linecap:round;stroke-linejoin:round" />
    <path
       id="path73"
       d="m 565.26486,851.03696 c -1.03426,-6.48188 -2.60471,-7.57341 6.74074,-11.76078 8.54822,-3.83012 17.05479,-7.21136 26.67457,-6.51132 1.98277,0.14432 4.09144,-0.17341 5.08878,1.93936 0.90567,1.91876 -0.42954,3.97791 -1.46562,5.00486 -3.44313,3.41313 -7.19537,6.58056 -11.14248,9.40404 -6.17836,4.41949 -10.74701,10.45985 -16.3154,15.47658 -0.16343,0.14722 -0.42252,0.29177 -0.45253,0.46889 -1.67627,9.86809 -10.55043,14.08216 -16.50593,20.4321 -9.53238,10.1638 -18.58624,20.69912 -27.43586,31.43535"
       inkscape:connector-curvature="0"
       style="opacity:1;fill:none;stroke:#000000;stroke-width:4.67298412;stroke-linecap:round;stroke-linejoin:round" />
    <path
       id="path75"
       d="m 779.52119,892.39287 c -14.17558,2.99249 -28.60275,3.78961 -42.99419,4.87007 -1.53732,0.11545 -3.11257,-0.275 -4.67025,-0.43073"
       inkscape:connector-curvature="0"
       style="opacity:1;fill:none;stroke:#000000;stroke-width:5.60758114;stroke-linecap:round;stroke-linejoin:round" />
    <path
       id="path101"
       d="m 572.04068,875.33648 c 10.8643,12.28461 20.85097,25.52092 35.98198,33.17819"
       inkscape:connector-curvature="0"
       style="opacity:1;fill:none;stroke:#000000;stroke-width:4.67298412;stroke-linecap:round;stroke-linejoin:round" />
    <path
       id="path151"
       d="m 673.44445,905.71088 c -3.8211,-1.10048 -5.8953,-3.65785 -7.08883,-7.45179 -1.26436,-4.0191 -2.48732,-7.98635 -3.45094,-12.11422 -1.06408,-4.55793 -0.0401,-8.56636 0.86363,-12.64724 0.60108,-2.71457 -0.003,-4.95346 -1.1504,-6.99561 -1.89121,-3.36624 -4.97307,-4.57927 -8.8,-3.3153"
       inkscape:connector-curvature="0"
       style="opacity:1;fill:none;stroke:#000000;stroke-width:4.67298412;stroke-linecap:round;stroke-linejoin:round" />
    <path
       id="path171"
       d="m 698.67856,857.11183 c -5.6264,1.11337 -7.98508,5.85368 -11.31367,9.72861 -3.91453,4.55691 -6.48793,10.11904 -11.05932,14.1683 -0.99068,0.87745 -1.85699,0.76695 -2.86112,0.86992"
       inkscape:connector-curvature="0"
       style="opacity:1;fill:none;stroke:#000000;stroke-width:4.67298412;stroke-linecap:round;stroke-linejoin:round" />
    <path
       id="path177"
       d="m 642.60275,874.86918 c -2.00661,-0.18329 -3.63515,0.13137 -5.19715,1.81642 -4.34504,4.68731 -9.13559,8.96048 -13.02749,14.07172"
       inkscape:connector-curvature="0"
       style="opacity:1;fill:none;stroke:#000000;stroke-width:4.67298412;stroke-linecap:round;stroke-linejoin:round" />
    <path
       id="path189"
       d="m 619.70512,872.99999 c 2.20074,5.89051 0.83437,12.51027 4.01825,18.32725 0.91229,1.66664 -0.55537,4.5621 -0.71703,6.90892 -0.20325,2.95096 -0.18592,5.91703 -0.26383,8.87661"
       inkscape:connector-curvature="0"
       style="opacity:1;fill:none;stroke:#000000;stroke-width:5.60758114;stroke-linecap:round;stroke-linejoin:round" />
  </g>
</svg>
